<mxfile host="app.diagrams.net" modified="2023-04-07T09:20:30.882Z" agent="5.0 (Macintosh; Intel Mac OS X 10_15_7) AppleWebKit/537.36 (KHTML, like Gecko) Chrome/111.0.0.0 Safari/537.36" version="20.7.3" etag="iIhbpd5MA7NlswxAB3v8" type="github">
  <diagram id="I7YHtifA6LL60yvUEPU_" name="페이지-1">
    <mxGraphModel dx="1053" dy="1360" grid="1" gridSize="10" guides="1" tooltips="1" connect="1" arrows="1" fold="1" page="1" pageScale="1" pageWidth="827" pageHeight="1169" math="0" shadow="0">
      <root>
        <mxCell id="0" />
        <mxCell id="1" parent="0" />
        <mxCell id="zBwAcd8G1NWDiT3LClnD-2" value="게시판 서비스" style="shape=umlFrame;whiteSpace=wrap;html=1;width=100;height=20;" vertex="1" parent="1">
          <mxGeometry x="100" y="40" width="648" height="600" as="geometry" />
        </mxCell>
        <mxCell id="zBwAcd8G1NWDiT3LClnD-1" value="이용자" style="shape=umlActor;verticalLabelPosition=bottom;verticalAlign=top;html=1;" vertex="1" parent="1">
          <mxGeometry x="20" y="150" width="30" height="60" as="geometry" />
        </mxCell>
        <mxCell id="zBwAcd8G1NWDiT3LClnD-14" value="" style="edgeStyle=orthogonalEdgeStyle;rounded=0;orthogonalLoop=1;jettySize=auto;html=1;strokeColor=default;endArrow=none;endFill=0;" edge="1" parent="1" source="zBwAcd8G1NWDiT3LClnD-3" target="zBwAcd8G1NWDiT3LClnD-1">
          <mxGeometry relative="1" as="geometry">
            <mxPoint x="50" y="180" as="targetPoint" />
          </mxGeometry>
        </mxCell>
        <mxCell id="zBwAcd8G1NWDiT3LClnD-3" value="회원 가입" style="rounded=1;whiteSpace=wrap;html=1;arcSize=40;fontColor=#000000;fillColor=#ffffc0;strokeColor=#ff0000;" vertex="1" parent="1">
          <mxGeometry x="140" y="160" width="120" height="40" as="geometry" />
        </mxCell>
        <mxCell id="zBwAcd8G1NWDiT3LClnD-16" style="edgeStyle=orthogonalEdgeStyle;rounded=0;orthogonalLoop=1;jettySize=auto;html=1;strokeColor=default;endArrow=none;endFill=0;" edge="1" parent="1" source="zBwAcd8G1NWDiT3LClnD-5" target="zBwAcd8G1NWDiT3LClnD-1">
          <mxGeometry relative="1" as="geometry" />
        </mxCell>
        <mxCell id="zBwAcd8G1NWDiT3LClnD-23" style="edgeStyle=orthogonalEdgeStyle;rounded=0;orthogonalLoop=1;jettySize=auto;html=1;entryX=0.371;entryY=0.975;entryDx=0;entryDy=0;dashed=1;strokeColor=default;endArrow=classic;endFill=1;entryPerimeter=0;exitX=0.5;exitY=0;exitDx=0;exitDy=0;" edge="1" parent="1" source="zBwAcd8G1NWDiT3LClnD-5">
          <mxGeometry relative="1" as="geometry">
            <mxPoint x="214" y="280" as="sourcePoint" />
            <mxPoint x="398.52" y="119" as="targetPoint" />
            <Array as="points">
              <mxPoint x="200" y="240" />
              <mxPoint x="399" y="240" />
            </Array>
          </mxGeometry>
        </mxCell>
        <mxCell id="zBwAcd8G1NWDiT3LClnD-5" value="게시판 보기" style="rounded=1;whiteSpace=wrap;html=1;arcSize=40;fontColor=#000000;fillColor=#ffffc0;strokeColor=#ff0000;" vertex="1" parent="1">
          <mxGeometry x="140" y="280" width="120" height="40" as="geometry" />
        </mxCell>
        <mxCell id="zBwAcd8G1NWDiT3LClnD-17" style="edgeStyle=orthogonalEdgeStyle;rounded=0;orthogonalLoop=1;jettySize=auto;html=1;strokeColor=default;endArrow=none;endFill=0;" edge="1" parent="1" source="zBwAcd8G1NWDiT3LClnD-6" target="zBwAcd8G1NWDiT3LClnD-1">
          <mxGeometry relative="1" as="geometry" />
        </mxCell>
        <mxCell id="zBwAcd8G1NWDiT3LClnD-24" style="edgeStyle=orthogonalEdgeStyle;rounded=0;orthogonalLoop=1;jettySize=auto;html=1;entryX=0.25;entryY=1;entryDx=0;entryDy=0;dashed=1;strokeColor=default;endArrow=classic;endFill=1;exitX=0.5;exitY=0;exitDx=0;exitDy=0;" edge="1" parent="1" source="zBwAcd8G1NWDiT3LClnD-6">
          <mxGeometry relative="1" as="geometry">
            <mxPoint x="214" y="520" as="sourcePoint" />
            <mxPoint x="384" y="120" as="targetPoint" />
            <Array as="points">
              <mxPoint x="200" y="440" />
              <mxPoint x="322" y="440" />
              <mxPoint x="322" y="160" />
              <mxPoint x="384" y="160" />
            </Array>
          </mxGeometry>
        </mxCell>
        <mxCell id="zBwAcd8G1NWDiT3LClnD-6" value="게시글 보기" style="rounded=1;whiteSpace=wrap;html=1;arcSize=40;fontColor=#000000;fillColor=#ffffc0;strokeColor=#ff0000;" vertex="1" parent="1">
          <mxGeometry x="140" y="520" width="120" height="40" as="geometry" />
        </mxCell>
        <mxCell id="zBwAcd8G1NWDiT3LClnD-15" style="edgeStyle=orthogonalEdgeStyle;rounded=0;orthogonalLoop=1;jettySize=auto;html=1;entryX=0.5;entryY=0;entryDx=0;entryDy=0;entryPerimeter=0;strokeColor=default;endArrow=none;endFill=0;" edge="1" parent="1" source="zBwAcd8G1NWDiT3LClnD-7" target="zBwAcd8G1NWDiT3LClnD-1">
          <mxGeometry relative="1" as="geometry" />
        </mxCell>
        <mxCell id="zBwAcd8G1NWDiT3LClnD-21" value="&amp;lt;&amp;lt;include&amp;gt;&amp;gt;" style="edgeStyle=orthogonalEdgeStyle;rounded=0;orthogonalLoop=1;jettySize=auto;html=1;entryX=0;entryY=0.5;entryDx=0;entryDy=0;dashed=1;strokeColor=default;endArrow=classic;endFill=1;" edge="1" parent="1" source="zBwAcd8G1NWDiT3LClnD-7" target="zBwAcd8G1NWDiT3LClnD-8">
          <mxGeometry relative="1" as="geometry" />
        </mxCell>
        <mxCell id="zBwAcd8G1NWDiT3LClnD-7" value="회원 로그인" style="rounded=1;whiteSpace=wrap;html=1;arcSize=40;fontColor=#000000;fillColor=#ffffc0;strokeColor=#ff0000;" vertex="1" parent="1">
          <mxGeometry x="340" y="80" width="120" height="40" as="geometry" />
        </mxCell>
        <mxCell id="zBwAcd8G1NWDiT3LClnD-8" value="인증" style="rounded=1;whiteSpace=wrap;html=1;arcSize=40;fontColor=#000000;fillColor=#ffffc0;strokeColor=#ff0000;" vertex="1" parent="1">
          <mxGeometry x="588" y="80" width="120" height="40" as="geometry" />
        </mxCell>
        <mxCell id="zBwAcd8G1NWDiT3LClnD-19" value="&amp;lt;&amp;lt;extend&amp;gt;&amp;gt;" style="edgeStyle=orthogonalEdgeStyle;rounded=0;orthogonalLoop=1;jettySize=auto;html=1;entryX=0.5;entryY=1;entryDx=0;entryDy=0;strokeColor=default;endArrow=classic;endFill=1;dashed=1;" edge="1" parent="1">
          <mxGeometry x="-0.1935" relative="1" as="geometry">
            <mxPoint x="602" y="180" as="sourcePoint" />
            <mxPoint x="414" y="120" as="targetPoint" />
            <mxPoint as="offset" />
          </mxGeometry>
        </mxCell>
        <mxCell id="zBwAcd8G1NWDiT3LClnD-9" value="로그인 실패" style="rounded=1;whiteSpace=wrap;html=1;arcSize=40;fontColor=#000000;fillColor=#ffffc0;strokeColor=#ff0000;" vertex="1" parent="1">
          <mxGeometry x="588" y="160" width="120" height="40" as="geometry" />
        </mxCell>
        <mxCell id="zBwAcd8G1NWDiT3LClnD-25" style="edgeStyle=orthogonalEdgeStyle;rounded=0;orthogonalLoop=1;jettySize=auto;html=1;entryX=1;entryY=0.5;entryDx=0;entryDy=0;dashed=1;strokeColor=default;endArrow=classic;endFill=1;" edge="1" parent="1" source="zBwAcd8G1NWDiT3LClnD-10" target="zBwAcd8G1NWDiT3LClnD-5">
          <mxGeometry relative="1" as="geometry" />
        </mxCell>
        <mxCell id="zBwAcd8G1NWDiT3LClnD-10" value="게시판 정렬" style="rounded=1;whiteSpace=wrap;html=1;arcSize=40;fontColor=#000000;fillColor=#ffffc0;strokeColor=#ff0000;" vertex="1" parent="1">
          <mxGeometry x="508" y="260" width="120" height="40" as="geometry" />
        </mxCell>
        <mxCell id="zBwAcd8G1NWDiT3LClnD-26" style="edgeStyle=orthogonalEdgeStyle;rounded=0;orthogonalLoop=1;jettySize=auto;html=1;entryX=1;entryY=0.5;entryDx=0;entryDy=0;dashed=1;strokeColor=default;endArrow=classic;endFill=1;" edge="1" parent="1" source="zBwAcd8G1NWDiT3LClnD-11" target="zBwAcd8G1NWDiT3LClnD-5">
          <mxGeometry relative="1" as="geometry" />
        </mxCell>
        <mxCell id="zBwAcd8G1NWDiT3LClnD-11" value="게시판 검색" style="rounded=1;whiteSpace=wrap;html=1;arcSize=40;fontColor=#000000;fillColor=#ffffc0;strokeColor=#ff0000;" vertex="1" parent="1">
          <mxGeometry x="508" y="340" width="120" height="40" as="geometry" />
        </mxCell>
        <mxCell id="zBwAcd8G1NWDiT3LClnD-27" style="edgeStyle=orthogonalEdgeStyle;rounded=0;orthogonalLoop=1;jettySize=auto;html=1;entryX=1;entryY=0.5;entryDx=0;entryDy=0;dashed=1;strokeColor=default;endArrow=classic;endFill=1;" edge="1" parent="1" source="zBwAcd8G1NWDiT3LClnD-12" target="zBwAcd8G1NWDiT3LClnD-6">
          <mxGeometry relative="1" as="geometry" />
        </mxCell>
        <mxCell id="zBwAcd8G1NWDiT3LClnD-12" value="게시글 쓰기, 수정, 삭제" style="rounded=1;whiteSpace=wrap;html=1;arcSize=40;fontColor=#000000;fillColor=#ffffc0;strokeColor=#ff0000;" vertex="1" parent="1">
          <mxGeometry x="340" y="480" width="120" height="40" as="geometry" />
        </mxCell>
        <mxCell id="zBwAcd8G1NWDiT3LClnD-28" style="edgeStyle=orthogonalEdgeStyle;rounded=0;orthogonalLoop=1;jettySize=auto;html=1;entryX=1;entryY=0.5;entryDx=0;entryDy=0;dashed=1;strokeColor=default;endArrow=classic;endFill=1;" edge="1" parent="1" source="zBwAcd8G1NWDiT3LClnD-13" target="zBwAcd8G1NWDiT3LClnD-6">
          <mxGeometry relative="1" as="geometry" />
        </mxCell>
        <mxCell id="zBwAcd8G1NWDiT3LClnD-13" value="댓글 보기, 쓰기,&lt;br&gt;&amp;nbsp;수정, 삭제" style="rounded=1;whiteSpace=wrap;html=1;arcSize=40;fontColor=#000000;fillColor=#ffffc0;strokeColor=#ff0000;" vertex="1" parent="1">
          <mxGeometry x="340" y="560" width="120" height="40" as="geometry" />
        </mxCell>
        <mxCell id="zBwAcd8G1NWDiT3LClnD-29" value="DB" style="html=1;dropTarget=0;" vertex="1" parent="1">
          <mxGeometry x="678" y="680" width="70" height="60" as="geometry" />
        </mxCell>
      </root>
    </mxGraphModel>
  </diagram>
</mxfile>
